<?xml version="1.0" encoding="UTF-8"?>
<!--  Makefile Navigator – VS Code Extension Icon
      设计规范见 iconDesignSpecification  -->
<svg width="128" height="128" viewBox="0 0 128 128"
     xmlns="http://www.w3.org/2000/svg"
     version="1.1">
  <!-- 可选阴影层 -->
  <defs>
    <filter id="softShadow" x="-20%" y="-20%" width="140%" height="140%">
      <feDropShadow dx="0" dy="2" stdDeviation="3" flood-color="#6A6A6A" flood-opacity="0.25"/>
    </filter>
  </defs>
  <!-- Letter M – VS Code 蓝 -->
  <path filter="url(#softShadow)"
        d="M 22 106 L 22 22 L 46 22 L 64 66 L 82 22 L 106 22 L 106 106 L 86 106 L 86 58 L 64 106 L 42 58 L 42 106 Z"
        fill="#007ACC"/>
  <!-- 四向导航箭头 – 构建工具橙 -->
  <g fill="#FF8C00">
    <!-- ↗ -->
    <polygon points="96 20 108 20 108 32 116 32 116 12 96 12"/>
    <polygon points="108 12 116 12 116 20"/>
    <!-- ↘ -->
    <polygon points="96 108 108 108 108 96 116 96 116 116 96 116"/>
    <polygon points="108 116 116 116 116 108"/>
    <!-- ↙ -->
    <polygon points="32 108 20 108 20 96 12 96 12 116 32 116"/>
    <polygon points="12 116 12 108 20 116"/>
    <!-- ↖ -->
    <polygon points="32 20 20 20 20 32 12 32 12 12 32 12"/>
    <polygon points="20 12 12 12 12 20"/>
  </g>
</svg>
